<svg version="1" xmlns="http://www.w3.org/2000/svg" width="1065.333" height="1065.333" viewBox="0 0 799.000000 799.000000"><path d="M560 398.5V492h209V305H560v93.5zM333.4 331.4c-.5 1.4-.8 106.1-.5 126.7.1 2.3.8 2.9 5.9 4.5 3.1 1 5.9 1.9 6.2 1.9.3.1 3 .5 6 1 3 .4 6.6 1 8 1.2 3.7.6 16.1.4 19-.2 1.4-.3 3.8-.8 5.4-1.1 6.9-1.2 16.9-6.8 23.1-12.9 4.5-4.3 8.9-13.5 11-22.9 1.6-7.4 0-24.9-2.8-30.1-.6-1.1-1.2-2.5-1.3-3.2-.1-.7-1.2-2.7-2.5-4.5-8.1-11.8-19.6-18.1-32.8-18.1-6.9 0-17 2.4-20.5 4.9-1.1.8-2.4 1.4-2.8 1.4-.5 0-.8-11-.8-24.4 0-17.8-.3-24.7-1.2-25.2-1.8-1.1-13.8-1.2-13.1-.1.4.6.1.7-.8.2-2.5-1.6-4.9-1.2-5.5.9zm48.6 63.2c1.9.8 5 2.9 6.8 4.7 3.1 3 4.1 4.7 7 11.8 1.4 3.5.9 16.8-.8 19.9-.7 1.4-1.1 2.6-.9 2.7 1.4.6-6.4 8.7-10.6 10.9-4.2 2.3-6.2 2.8-12.5 2.8-4.1 0-9.6-.4-12.2-.8l-4.8-.7v-22.6c0-25-.5-23.2 7.1-27.3 2-1 3.9-1.6 4.3-1.3.3.4.6.2.6-.3 0-1.6 12.1-1.4 16 .2zM436.6 332.9c-5.4 3.6-7.1 10.2-4.2 16 5.8 11.1 21.8 6.6 22.2-6.2.1-3.2-.5-4.6-3.6-7.8s-4.4-3.9-7.6-3.9c-2.2 0-5.2.9-6.8 1.9zM498.9 336.8c-1.9 2-5.6 6.4-8.4 9.7-2.7 3.3-5.4 6.5-6 7.1-.5.7-1.9 2.2-2.9 3.5-1.1 1.3-4.6 5.4-7.8 9.2-3.2 3.7-5.8 7.6-5.8 8.7 0 2 3 3.3 6.6 3 1.1-.1 3.5-.2 5.4-.1l3.5.1.1 28.3c0 32.4.4 37.8 3.1 43.8 2.1 4.7 7.2 10.5 11.3 13 6.2 3.7 16.5 5.4 22.5 3.7 1.7-.5 4.1-1.1 5.4-1.4 1.3-.3 3.4-1 4.5-1.7 1.2-.6 2.3-1.1 2.6-1.2.3 0 1.4-.7 2.5-1.5 1.8-1.3 2.1-2.7 2.2-11.7.1-7.8-.2-10.3-1.3-10.7-.7-.3-4.2.8-7.6 2.4-8.1 3.7-12.9 4.4-17.4 2.5-6.2-2.6-6.7-5.1-6.8-37.3l-.1-28.2 2.5-.1h13.7c9.6 0 11.2-.2 11.8-1.7.8-2 .8-19 0-20.3-.3-.5-5-.8-10.3-.8h-13.7l-4-.1.1-10c.2-12.2-.8-13.6-5.7-8.2zM172.4 342.2c-3.8 4.6-7.1 8.5-7.4 8.8-.3.3-4.1 4.8-8.4 10-4.4 5.2-8.6 10.3-9.3 11.2-.9 1-1.2 2.5-.8 3.8.6 1.8 1.4 2.1 5.3 2 2.6-.1 5.9-.1 7.3-.1l2.6.1.1 30.3c0 24.5.3 31.6 1.6 36.7 3.6 14 13.5 21.7 29.1 22.5 2.2.1 4.5-.1 5-.4.6-.3 1.9-.7 3-.8 3.8-.5 11-3.6 13.2-5.6 2-1.8 2.2-2.9 2.1-11.9 0-5.4-.5-10.1-1-10.4-.5-.3-3 .4-5.6 1.6-9.1 4.3-10.2 4.6-17.8 4.1-3.8-.2-6.8-4-8.1-10.1-.5-2.6-.5-55.1 0-55.6.3-.3 6.3-.6 13.4-.6 7 0 13.3-.4 13.8-.8 1.1-.9 1.2-19 .2-20.7-.5-.7-5.5-1.1-13.8-1.2-7.2 0-13.4-.2-13.7-.5-.2-.3-.4-5-.4-10.6 0-9-.2-10-1.8-10-1.1 0-4.7 3.4-8.6 8.2zM26.7 336.4c-1 2.6.1 88.2 1.1 93.4 2.8 13.2 11.3 24.4 23.3 30.7 3.8 2 6.9 3.3 6.9 2.9 0-.3.7-.1 1.5.6.8.6 1.9.9 2.5.5.5-.3 1-.2 1 .2 0 1 2.3 1.4 9.2 1.6 2.7.1 4.8.5 4.8.9 0 .3.8.4 1.7.2 1-.2 4.3-.6 7.3-.8 3-.2 5.5-.5 5.5-.6 0-.1 1.4-.3 3-.5 1.7-.2 5.1-1.3 7.8-2.4 2.6-1.1 4.7-1.8 4.7-1.6 0 1.1 10.8-7.1 14.2-10.8 5.8-6.3 10.2-16.4 11.4-26.2 1-7.3 1.2-84.6.2-87.2-.7-2.1-1.2-2.2-10-2l-9.3.2-.1 35c-.2 46.2-.8 55.5-3.4 60.9-3.5 7.4-9.6 12.2-18.6 14.9-4.8 1.4-16.9 1.6-22.8.3-8.9-2-18.7-10.7-20-17.6-.2-1.4-.5-2.5-.6-2.5-.8 0-1.1-11-1.3-47-.1-23.1-.6-42.6-1.1-43.3-1-1.7-18.3-1.5-18.9.2zM271.7 347.6c-.3.3-2.5.7-4.9.9-13.3 1.2-27.1 6.4-32 12.4-2.2 2.5-2.5 3.8-2.3 8.6.2 3.1.9 6.2 1.5 7 1.8 2.2 5.6 1.8 10.3-1 13.7-7.9 28.8-10.1 38.1-5.5 6.6 3.4 8.8 7.7 9.4 18.6l.4 8.2-9.8.1c-12.3 0-21.6 1.1-26.8 3.1-1.5.5-2.6.7-2.6.4 0-.4-.6-.2-1.2.4-.7.6-1.5 1-1.8 1-2.3-.1-9.4 4.5-13.5 8.7-5.8 6-8.6 12.8-9 21.3-.7 17.6 7.9 29.4 25.1 34.5 5.7 1.7 19.4 2 19.4.4 0-.6.3-.8.6-.4.9.8 11.7-3.4 13.2-5.2.6-.8 1.2-1.1 1.2-.7 0 .4 1.6-.6 3.5-2.3 2-1.7 3.7-3.1 3.8-3.1.1 0 .3 1.9.4 4.1.1 2.3.5 4.5 1 5 1.2 1.2 9.3 2.8 9.8 1.9.3-.5 1.3-.6 2.3-.3 1 .2 2.9-.4 4.2-1.5l2.3-1.9-.1-39.4c-.1-42.3-.3-44.9-3.2-53.4-4-12-16.1-20-31.3-20.9-3-.1-5.8-.6-6.4-.9-.6-.4-1.3-.4-1.6-.1zm20.1 77l.3 10.1-5.5 5c-6.8 6.2-11.3 8.4-18.3 8.8-5.7.4-11.1-1.3-14.1-4.3-2.6-2.6-4.5-9.3-3.8-13.8.3-2.1.5-4.2.6-4.6 0-.4 1.2-2 2.8-3.7 3.1-3.5 9-6.2 14.7-6.8 2.2-.3 4.1-.6 4.2-.7.1-.1 4.4-.2 9.5-.1h9.3l.3 10.1zM433.1 370.5c-1 1.2-1.1 91.9-.1 93.5.8 1.3 17.9 1.5 19.2.2.6-.6 1.1-18.5 1.2-47.1.1-40.1-.1-46.2-1.4-46.7-2.4-1.1-18.1-1-18.9.1z"/></svg>